<svg width="180" height="18" viewBox="0,0,180,18" xmlns="http://www.w3.org/2000/svg"><svg ti:v="1" width="16" height="16" viewBox="0,0,16,15.9999990463257" xmlns="http://www.w3.org/2000/svg" xmlns:ti="urn:schemas-jetbrains-com:tisvg" x="0" y="0"><g><path fill-rule="evenodd" d="M0,0L16,0L16,15.999999046325684L0,15.999999046325684Z" fill="#FFFFFF" opacity="0" /><linearGradient id="F10" x1="0.499998" y1="0.0185669" x2="0.499998" y2="1.02011"><stop offset="0" stop-color="#5572A1" /><stop offset="1" stop-color="#405980" /></linearGradient><path fill-rule="evenodd" d="M0,8.4999998641967771C0,9.8808998641967776,1.1189999999999998,10.999999864196777,2.5,10.999999864196777L2.5,10.999999864196777C3.3149999999999977,10.999999864196777,4.0319999999999965,10.602999864196779,4.4890000000000043,9.9999998641967771L5,9.9999998641967771L5,6.9999998641967771L4.4890000000000043,6.9999998641967771C4.0319999999999965,6.3968998641967758,3.3149999999999977,5.9999998641967771,2.5,5.9999998641967771L2.5,5.9999998641967771C1.1189999999999998,5.9999998641967771,0,7.1199998641967781,0,8.4999998641967771Z" fill="url(#F10)" /><linearGradient id="F20" x1="0.5" y1="0.0185615" x2="0.5" y2="1.0201"><stop offset="0" stop-color="#566980" /><stop offset="1" stop-color="#2C3641" /></linearGradient><path fill-rule="evenodd" d="M8,3.9999998641967771C6.3449999999999989,3.9999998641967771,5,5.3459998641967772,5,6.9999998641967771L5,9.9999998641967771C5,11.654999864196778,6.3449999999999989,12.999999864196777,8,12.999999864196777L13,12.999999864196777C14.653999999999996,12.999999864196777,16,11.654999864196778,16,9.9999998641967771L16,6.9999998641967771C16,5.3459998641967772,14.653999999999996,3.9999998641967771,13,3.9999998641967771L8,3.9999998641967771Z" fill="url(#F20)" /><linearGradient id="F30" x1="0.5" y1="0.0101929" x2="0.5" y2="1.00085"><stop offset="0" stop-color="#FFFFFF" /><stop offset="1" stop-color="#A7BBDB" /></linearGradient><path fill-rule="evenodd" d="M8,4.9999998641967771C6.9000000000000057,4.9999998641967771,6,5.8999998641967775,6,6.9999998641967771L6,7.9999998641967771L6,8.9999998641967771L6,9.9999998641967771C6,11.098999864196777,6.9000000000000057,11.999999864196777,8,11.999999864196777L13,11.999999864196777C14.099999999999994,11.999999864196777,15,11.098999864196777,15,9.9999998641967771L15,6.9999998641967771C15,5.8999998641967775,14.099999999999994,4.9999998641967771,13,4.9999998641967771L8,4.9999998641967771Z" fill="url(#F30)" /><linearGradient id="F40" x1="0.5" y1="1.2207E-05" x2="0.5" y2="1.06713"><stop offset="0" stop-color="#A7BBDB" /><stop offset="1" stop-color="#FFFFFF" /></linearGradient><path fill-rule="evenodd" d="M8,5.9999998641967771C7.4489999999999981,5.9999998641967771,7,6.4479998641967775,7,6.9999998641967771L7,9.9999998641967771C7,10.551999864196777,7.4489999999999981,10.999999864196777,8,10.999999864196777L13,10.999999864196777C13.552000000000007,10.999999864196777,14,10.551999864196777,14,9.9999998641967771L14,6.9999998641967771C14,6.4479998641967775,13.552000000000007,5.9999998641967771,13,5.9999998641967771L8,5.9999998641967771Z" fill="url(#F40)" /><path fill-rule="evenodd" d="M6,7.9999998641967771L3.9080000000000013,7.9999998641967771C3.7019999999999982,7.4189998641967776,3.152000000000001,6.9999998641967771,2.5,6.9999998641967771C1.6710000000000065,6.9999998641967771,1,7.6719998641967777,1,8.4999998641967771C1,9.3279998641967765,1.6710000000000065,9.9999998641967771,2.5,9.9999998641967771C3.152000000000001,9.9999998641967771,3.7019999999999982,9.5809998641967766,3.9080000000000013,8.9999998641967771L6,8.9999998641967771L6,7.9999998641967771Z" fill="#7ED5FF" /><path fill-rule="evenodd" d="M3,8.4999998641967771C3,8.7759998641967769,2.7759999999999962,8.9999998641967771,2.5,8.9999998641967771C2.2240000000000038,8.9999998641967771,2,8.7759998641967769,2,8.4999998641967771C2,8.2239998641967773,2.2240000000000038,7.9999998641967771,2.5,7.9999998641967771C2.7759999999999962,7.9999998641967771,3,8.2239998641967773,3,8.4999998641967771Z" fill="#00FFFF" /></g></svg><svg width="16" height="16" viewBox="0,0,16,16" x="18" y="0"><svg ti:v="1" width="16" height="16" viewBox="0,0,16,16" xmlns="http://www.w3.org/2000/svg" xmlns:ti="urn:schemas-jetbrains-com:tisvg"><g><path fill-rule="evenodd" d="M0,0L16,0L16,16L0,16Z" fill="#FFFFFF" opacity="0" /><path fill-rule="evenodd" d="M7,13L7,8L3.5859999999999985,8L6.5859999999999985,5L14.414000000000001,5L11.414000000000001,8L10,8L10,10L14.414000000000001,10L11.414000000000001,13L7,13Z" fill="#324A63" /><linearGradient id="F201" x1="0.499996" y1="0" x2="0.499996" y2="1.00001"><stop offset="0" stop-color="#1C568E" /><stop offset="1" stop-color="#000E4F" /></linearGradient><path fill-rule="evenodd" d="M16,12.414000000000001L16,11.585999999999999L13,8.5859999999999985L8.5859999999999985,13L11.585999999999999,16L12.414000000000001,16L16,12.414000000000001Z" fill="url(#F201)" /><linearGradient id="F301" x1="0.499996" y1="0" x2="0.499996" y2="1.00002"><stop offset="0" stop-color="#720872" /><stop offset="1" stop-color="#540A54" /></linearGradient><path fill-rule="evenodd" d="M16,6.5859999999999985L13,3.5859999999999985L8.5859999999999985,8L12,11.414000000000001L16,7.4140000000000015L16,6.5859999999999985Z" fill="url(#F301)" /><linearGradient id="F401" x1="0.5" y1="1.2207E-05" x2="0.5" y2="1.00001"><stop offset="0" stop-color="#EBACF6" /><stop offset="1" stop-color="#DA6EDB" /></linearGradient><path fill-rule="evenodd" d="M13,5L15,7L12,10L10,8L13,5Z" fill="url(#F401)" /><linearGradient id="F501" x1="0.5" y1="1.2207E-05" x2="0.5" y2="1.00001"><stop offset="0" stop-color="#9CCDFD" /><stop offset="1" stop-color="#5D9AD8" /></linearGradient><path fill-rule="evenodd" d="M13,10L15,12L12,15L10,13L13,10Z" fill="url(#F501)" /><linearGradient id="F601" x1="0.500002" y1="5.86087E-06" x2="0.500002" y2="1.00001"><stop offset="0" stop-color="#6E4D00" /><stop offset="1" stop-color="#422D00" /></linearGradient><path fill-rule="evenodd" d="M0,5.5859999999999985L0,6.4140000000000015L4,10.414000000000001L10.414000000000001,4L6.4140000000000015,0L5.5859999999999985,0L0,5.5859999999999985Z" fill="url(#F601)" /><linearGradient id="F701" x1="0.499999" y1="7.62939E-06" x2="0.499999" y2="1.00001"><stop offset="0" stop-color="#F6DF85" /><stop offset="1" stop-color="#EDB62A" /></linearGradient><path fill-rule="evenodd" d="M4,9L1,6L6,1L9,4L4,9Z" fill="url(#F701)" /><path fill-rule="evenodd" d="M11,7L11,6L7,6L7,7L8,7L8,12L11,12L11,11L9,11L9,7L11,7Z" fill="#FFFFFF" /></g></svg><svg ti:v="1" width="16" height="16" viewBox="0,0,16,16" xmlns="http://www.w3.org/2000/svg" xmlns:ti="urn:schemas-jetbrains-com:tisvg"><g><path fill-rule="evenodd" d="M0,0L16,0L16,16L0,16Z" fill="#FFFFFF" opacity="0" /><linearGradient id="F111" x1="0.5" y1="1.01725E-05" x2="0.5" y2="1.00001"><stop offset="0" stop-color="#856000" /><stop offset="1" stop-color="#562800" /></linearGradient><path fill-rule="evenodd" d="M8,16L0,16L0,10L8,10L8,16Z" fill="url(#F111)" /><linearGradient id="F211" x1="0.5" y1="1.52588E-05" x2="0.5" y2="1.00002"><stop offset="0" stop-color="#FFEF8C" /><stop offset="1" stop-color="#EFDB72" /></linearGradient><path fill-rule="evenodd" d="M7,11L1,11L1,15L7,15L7,11Z" fill="url(#F211)" /><linearGradient id="F311" x1="0.5" y1="2.03451E-05" x2="0.5" y2="1.00002"><stop offset="0" stop-color="#856000" /><stop offset="1" stop-color="#562800" /></linearGradient><path fill-rule="evenodd" d="M1,11L4,13L7,11L7,12L4,14L1,12L1,11Z" fill="url(#F311)" /></g></svg></svg><svg ti:v="1" width="16" height="16" viewBox="0,0,16,16" xmlns="http://www.w3.org/2000/svg" xmlns:ti="urn:schemas-jetbrains-com:tisvg" x="36" y="0"><g><path fill-rule="evenodd" d="M0,0L16,0L16,16L0,16Z" fill="#FFFFFF" opacity="0" /><path fill-rule="evenodd" d="M7,13L7,8L3.5859999999999985,8L6.5859999999999985,5L14.414000000000001,5L11.414000000000001,8L10,8L10,10L14.414000000000001,10L11.414000000000001,13L7,13Z" fill="#324A63" /><linearGradient id="F22" x1="0.499996" y1="0" x2="0.499996" y2="1.00001"><stop offset="0" stop-color="#1C568E" /><stop offset="1" stop-color="#000E4F" /></linearGradient><path fill-rule="evenodd" d="M16,12.414000000000001L16,11.585999999999999L13,8.5859999999999985L8.5859999999999985,13L11.585999999999999,16L12.414000000000001,16L16,12.414000000000001Z" fill="url(#F22)" /><linearGradient id="F32" x1="0.499996" y1="0" x2="0.499996" y2="1.00002"><stop offset="0" stop-color="#720872" /><stop offset="1" stop-color="#540A54" /></linearGradient><path fill-rule="evenodd" d="M16,6.5859999999999985L13,3.5859999999999985L8.5859999999999985,8L12,11.414000000000001L16,7.4140000000000015L16,6.5859999999999985Z" fill="url(#F32)" /><linearGradient id="F42" x1="0.5" y1="1.2207E-05" x2="0.5" y2="1.00001"><stop offset="0" stop-color="#EBACF6" /><stop offset="1" stop-color="#DA6EDB" /></linearGradient><path fill-rule="evenodd" d="M13,5L15,7L12,10L10,8L13,5Z" fill="url(#F42)" /><linearGradient id="F52" x1="0.5" y1="1.2207E-05" x2="0.5" y2="1.00001"><stop offset="0" stop-color="#9CCDFD" /><stop offset="1" stop-color="#5D9AD8" /></linearGradient><path fill-rule="evenodd" d="M13,10L15,12L12,15L10,13L13,10Z" fill="url(#F52)" /><linearGradient id="F62" x1="0.500002" y1="5.86087E-06" x2="0.500002" y2="1.00001"><stop offset="0" stop-color="#6E4D00" /><stop offset="1" stop-color="#422D00" /></linearGradient><path fill-rule="evenodd" d="M0,5.5859999999999985L0,6.4140000000000015L4,10.414000000000001L10.414000000000001,4L6.4140000000000015,0L5.5859999999999985,0L0,5.5859999999999985Z" fill="url(#F62)" /><linearGradient id="F72" x1="0.499999" y1="7.62939E-06" x2="0.499999" y2="1.00001"><stop offset="0" stop-color="#F6DF85" /><stop offset="1" stop-color="#EDB62A" /></linearGradient><path fill-rule="evenodd" d="M4,9L1,6L6,1L9,4L4,9Z" fill="url(#F72)" /><path fill-rule="evenodd" d="M11,7L11,6L7,6L7,7L8,7L8,12L11,12L11,11L9,11L9,7L11,7Z" fill="#FFFFFF" /></g></svg><svg width="16" height="16" viewBox="0,0,16,16" x="54" y="0"><svg ti:v="1" width="16" height="16" viewBox="0,0,16,16" xmlns="http://www.w3.org/2000/svg" xmlns:ti="urn:schemas-jetbrains-com:tisvg"><g><path fill-rule="evenodd" d="M0,0L16,0L16,16L0,16Z" fill="#FFFFFF" opacity="0" /><linearGradient id="F103" x1="0.499999" y1="4.69501E-06" x2="0.499999" y2="1"><stop offset="0" stop-color="#800080" /><stop offset="1" stop-color="#5B005B" /></linearGradient><path fill-rule="evenodd" d="M2,4.160000000000025L2,10.841000000000008L7.7420000000000044,14L8.2579999999999956,14L14,10.841000000000008L14,4.160000000000025L8.2579999999999956,1L7.7420000000000044,1L2,4.160000000000025Z" fill="url(#F103)" /><linearGradient id="F203" x1="0.0278305" y1="0.5" x2="1.01539" y2="0.5"><stop offset="0" stop-color="#FD59FF" /><stop offset="1" stop-color="#FF9CFF" /></linearGradient><path fill-rule="evenodd" d="M3,5.25L3,10.25L8,13L8,8L3,5.25Z" fill="url(#F203)" /><linearGradient id="F303" x1="0.0278305" y1="0.5" x2="1.01539" y2="0.5"><stop offset="0" stop-color="#FD33FF" /><stop offset="1" stop-color="#FFA3FF" /></linearGradient><path fill-rule="evenodd" d="M13,5.25L8,8L8,13L13,10.25L13,5.25Z" fill="url(#F303)" /><path fill-rule="evenodd" d="M12.544899999999998,4.5L7.9998999999999967,7L3.454899999999995,4.5L2.9998999999999967,4.7509999999999764L2.9998999999999967,5.25L7.9998999999999967,8L12.999899999999997,5.25L12.999899999999997,4.7509999999999764L12.544899999999998,4.5Z" fill="#FFFFFF" /><linearGradient id="F503" x1="0.499999" y1="0.0277466" x2="0.499999" y2="1.01531"><stop offset="0" stop-color="#FD54FF" /><stop offset="1" stop-color="#FFBFFF" /></linearGradient><path fill-rule="evenodd" d="M8,7L12.545000000000002,4.5L8,2L3.4549999999999983,4.5L8,7Z" fill="url(#F503)" /></g></svg><svg ti:v="1" width="16" height="16" viewBox="0,0,16,16" xmlns="http://www.w3.org/2000/svg" xmlns:ti="urn:schemas-jetbrains-com:tisvg"><g><path fill-rule="evenodd" d="M0,0L16,0L16,16L0,16Z" fill="#FFFFFF" opacity="0" /><linearGradient id="F113" x1="0.5" y1="0.0162048" x2="0.5" y2="1.00555"><stop offset="0" stop-color="#776004" /><stop offset="1" stop-color="#443400" /></linearGradient><path fill-rule="evenodd" d="M7,16L0,16L0,10L7,10L7,16Z" fill="url(#F113)" /><linearGradient id="F213" x1="0" y1="0.500015" x2="1" y2="0.500015"><stop offset="0" stop-color="#D6B672" /><stop offset="0.31901800632476807" stop-color="#FDD89C" /><stop offset="1" stop-color="#C36D2A" /></linearGradient><path fill-rule="evenodd" d="M6,15L1,15L1,11L6,11L6,15Z" fill="url(#F213)" /><path fill-rule="evenodd" d="M3,14L4,14L4,12L3,12L3,14Z" fill="#000000" /><linearGradient id="F413" x1="0" y1="0.500015" x2="1" y2="0.500015"><stop offset="0" stop-color="#939597" /><stop offset="1" stop-color="#57595B" /></linearGradient><path fill-rule="evenodd" d="M3,6C1.8950000000000102,6,1,6.89500000000001,1,8L1,10L6,10L6,8C6,6.89500000000001,5.10499999999999,6,4,6L3,6Z" fill="url(#F413)" /><path fill-rule="evenodd" d="M4,7L3,7L2,8L2,10L3,10L3,8L4,8L4,10L5,10L5,8L4,7Z" fill="#FFFFFF" /></g></svg><svg ti:v="1" width="16" height="16" viewBox="0,0,16,16" xmlns="http://www.w3.org/2000/svg" xmlns:ti="urn:schemas-jetbrains-com:tisvg"><g><path fill-rule="evenodd" d="M0,0L16,0L16,16L0,16Z" fill="#FFFFFF" opacity="0" /><linearGradient id="F123" x1="0.499996" y1="4.35965E-06" x2="0.499996" y2="1"><stop offset="0" stop-color="#805D00" /><stop offset="1" stop-color="#563D00" /></linearGradient><path fill-rule="evenodd" d="M12.086000000000013,9L9,12.086000000000013L9,12.913999999999987L12.086000000000013,16L12.913999999999987,16L16,12.913999999999987L16,12.086000000000013L12.913999999999987,9L12.086000000000013,9Z" fill="url(#F123)" /><linearGradient id="F223" x1="0.499994" y1="6.10352E-06" x2="0.499994" y2="1.00001"><stop offset="0" stop-color="#FFFF80" /><stop offset="1" stop-color="#FFC300" /></linearGradient><path fill-rule="evenodd" d="M12.5,10L15,12.5L12.5,15L10,12.5L12.5,10Z" fill="url(#F223)" /></g></svg></svg><svg width="16" height="16" viewBox="0,0,16,16" x="72" y="0"><svg ti:v="1" width="16" height="16" viewBox="0,0,16,16" xmlns="http://www.w3.org/2000/svg" xmlns:ti="urn:schemas-jetbrains-com:tisvg"><g><path fill-rule="evenodd" d="M0,0L16,0L16,16L0,16Z" fill="#FFFFFF" opacity="0" /><path fill-rule="evenodd" d="M7,13L7,8L3.5859999999999985,8L6.5859999999999985,5L14.414000000000001,5L11.414000000000001,8L10,8L10,10L14.414000000000001,10L11.414000000000001,13L7,13Z" fill="#324A63" /><linearGradient id="F204" x1="0.499996" y1="0" x2="0.499996" y2="1.00001"><stop offset="0" stop-color="#1C568E" /><stop offset="1" stop-color="#000E4F" /></linearGradient><path fill-rule="evenodd" d="M16,12.414000000000001L16,11.585999999999999L13,8.5859999999999985L8.5859999999999985,13L11.585999999999999,16L12.414000000000001,16L16,12.414000000000001Z" fill="url(#F204)" /><linearGradient id="F304" x1="0.499996" y1="0" x2="0.499996" y2="1.00002"><stop offset="0" stop-color="#720872" /><stop offset="1" stop-color="#540A54" /></linearGradient><path fill-rule="evenodd" d="M16,6.5859999999999985L13,3.5859999999999985L8.5859999999999985,8L12,11.414000000000001L16,7.4140000000000015L16,6.5859999999999985Z" fill="url(#F304)" /><linearGradient id="F404" x1="0.5" y1="1.2207E-05" x2="0.5" y2="1.00001"><stop offset="0" stop-color="#EBACF6" /><stop offset="1" stop-color="#DA6EDB" /></linearGradient><path fill-rule="evenodd" d="M13,5L15,7L12,10L10,8L13,5Z" fill="url(#F404)" /><linearGradient id="F504" x1="0.5" y1="1.2207E-05" x2="0.5" y2="1.00001"><stop offset="0" stop-color="#9CCDFD" /><stop offset="1" stop-color="#5D9AD8" /></linearGradient><path fill-rule="evenodd" d="M13,10L15,12L12,15L10,13L13,10Z" fill="url(#F504)" /><linearGradient id="F604" x1="0.500002" y1="5.86087E-06" x2="0.500002" y2="1.00001"><stop offset="0" stop-color="#6E4D00" /><stop offset="1" stop-color="#422D00" /></linearGradient><path fill-rule="evenodd" d="M0,5.5859999999999985L0,6.4140000000000015L4,10.414000000000001L10.414000000000001,4L6.4140000000000015,0L5.5859999999999985,0L0,5.5859999999999985Z" fill="url(#F604)" /><linearGradient id="F704" x1="0.499999" y1="7.62939E-06" x2="0.499999" y2="1.00001"><stop offset="0" stop-color="#F6DF85" /><stop offset="1" stop-color="#EDB62A" /></linearGradient><path fill-rule="evenodd" d="M4,9L1,6L6,1L9,4L4,9Z" fill="url(#F704)" /><path fill-rule="evenodd" d="M11,7L11,6L7,6L7,7L8,7L8,12L11,12L11,11L9,11L9,7L11,7Z" fill="#FFFFFF" /></g></svg><svg ti:v="1" width="16" height="16" viewBox="0,0,16,16" xmlns="http://www.w3.org/2000/svg" xmlns:ti="urn:schemas-jetbrains-com:tisvg"><g><path fill-rule="evenodd" d="M0,0L16,0L16,16L0,16Z" fill="#FFFFFF" opacity="0" /><linearGradient id="F114" x1="0.5" y1="0.0162048" x2="0.5" y2="1.00555"><stop offset="0" stop-color="#776004" /><stop offset="1" stop-color="#443400" /></linearGradient><path fill-rule="evenodd" d="M7,16L0,16L0,10L7,10L7,16Z" fill="url(#F114)" /><linearGradient id="F214" x1="0" y1="0.500015" x2="1" y2="0.500015"><stop offset="0" stop-color="#D6B672" /><stop offset="0.31901800632476807" stop-color="#FDD89C" /><stop offset="1" stop-color="#C36D2A" /></linearGradient><path fill-rule="evenodd" d="M6,15L1,15L1,11L6,11L6,15Z" fill="url(#F214)" /><path fill-rule="evenodd" d="M3,14L4,14L4,12L3,12L3,14Z" fill="#000000" /><linearGradient id="F414" x1="0" y1="0.500015" x2="1" y2="0.500015"><stop offset="0" stop-color="#939597" /><stop offset="1" stop-color="#57595B" /></linearGradient><path fill-rule="evenodd" d="M3,6C1.8950000000000102,6,1,6.89500000000001,1,8L1,10L6,10L6,8C6,6.89500000000001,5.10499999999999,6,4,6L3,6Z" fill="url(#F414)" /><path fill-rule="evenodd" d="M4,7L3,7L2,8L2,10L3,10L3,8L4,8L4,10L5,10L5,8L4,7Z" fill="#FFFFFF" /></g></svg></svg><svg ti:v="1" width="16" height="16" viewBox="0,0,16,16" xmlns="http://www.w3.org/2000/svg" xmlns:ti="urn:schemas-jetbrains-com:tisvg" x="90" y="0"><g><path fill-rule="evenodd" d="M0,0L16,0L16,16L0,16Z" fill="#FFFFFF" opacity="0" /><linearGradient id="F15" x1="0.499999" y1="4.69501E-06" x2="0.499999" y2="1"><stop offset="0" stop-color="#800080" /><stop offset="1" stop-color="#5B005B" /></linearGradient><path fill-rule="evenodd" d="M2,4.160000000000025L2,10.841000000000008L7.7420000000000044,14L8.2579999999999956,14L14,10.841000000000008L14,4.160000000000025L8.2579999999999956,1L7.7420000000000044,1L2,4.160000000000025Z" fill="url(#F15)" /><linearGradient id="F25" x1="0.0278305" y1="0.5" x2="1.01539" y2="0.5"><stop offset="0" stop-color="#FD59FF" /><stop offset="1" stop-color="#FF9CFF" /></linearGradient><path fill-rule="evenodd" d="M3,5.25L3,10.25L8,13L8,8L3,5.25Z" fill="url(#F25)" /><linearGradient id="F35" x1="0.0278305" y1="0.5" x2="1.01539" y2="0.5"><stop offset="0" stop-color="#FD33FF" /><stop offset="1" stop-color="#FFA3FF" /></linearGradient><path fill-rule="evenodd" d="M13,5.25L8,8L8,13L13,10.25L13,5.25Z" fill="url(#F35)" /><path fill-rule="evenodd" d="M12.544899999999998,4.5L7.9998999999999967,7L3.454899999999995,4.5L2.9998999999999967,4.7509999999999764L2.9998999999999967,5.25L7.9998999999999967,8L12.999899999999997,5.25L12.999899999999997,4.7509999999999764L12.544899999999998,4.5Z" fill="#FFFFFF" /><linearGradient id="F55" x1="0.499999" y1="0.0277466" x2="0.499999" y2="1.01531"><stop offset="0" stop-color="#FD54FF" /><stop offset="1" stop-color="#FFBFFF" /></linearGradient><path fill-rule="evenodd" d="M8,7L12.545000000000002,4.5L8,2L3.4549999999999983,4.5L8,7Z" fill="url(#F55)" /></g></svg><svg ti:v="1" width="16" height="16" viewBox="0,0,16,16" xmlns="http://www.w3.org/2000/svg" xmlns:ti="urn:schemas-jetbrains-com:tisvg" x="108" y="0"><g><path fill-rule="evenodd" d="M0,0L16,0L16,16L0,16Z" fill="#FFFFFF" opacity="0" /><linearGradient id="F16" x1="0.5" y1="5.54865E-06" x2="0.5" y2="1.00001"><stop offset="0" stop-color="#800080" /><stop offset="1" stop-color="#5B005B" /></linearGradient><path fill-rule="evenodd" d="M5,12.25L5,6.7510000000000048L10,4L15,6.7510000000000048L15,12.25L10,15L5,12.25Z" fill="url(#F16)" /><linearGradient id="F26" x1="0.0278301" y1="0.500025" x2="1.01539" y2="0.500025"><stop offset="0" stop-color="#FD59FF" /><stop offset="1" stop-color="#FF9CFF" /></linearGradient><path fill-rule="evenodd" d="M6,7.8009999999999877L6,11.658999999999992L10,13.858000000000004L10,10L6,7.8009999999999877Z" fill="url(#F26)" /><linearGradient id="F36" x1="0.027832" y1="0.500025" x2="1.01539" y2="0.500025"><stop offset="0" stop-color="#FD33FF" /><stop offset="1" stop-color="#FFA3FF" /></linearGradient><path fill-rule="evenodd" d="M14,7.8009999999999877L10,10L10,13.858000000000004L14,11.658999999999992L14,7.8009999999999877Z" fill="url(#F36)" /><path fill-rule="evenodd" d="M13.378900000000002,7L9.9998999999999967,8.8580000000000041L6.620900000000006,7L5.9998999999999967,7.342000000000013L5.9998999999999967,7.8009999999999877L9.9998999999999967,10L13.999899999999997,7.8009999999999877L13.999899999999997,7.342000000000013L13.378900000000002,7Z" fill="#FFE6FF" /><linearGradient id="F56" x1="0.5" y1="0.0277584" x2="0.5" y2="1.01553"><stop offset="0" stop-color="#FD54FF" /><stop offset="1" stop-color="#FFBFFF" /></linearGradient><path fill-rule="evenodd" d="M10,8.8580000000000041L13.379000000000005,7L10,5.1419999999999959L6.6209999999999951,7L10,8.8580000000000041Z" fill="url(#F56)" /><path fill-rule="evenodd" d="M5,1L5,0L2,0L2,1L0,1L0,8L2,8L2,9L5,9L5,8L7,8L7,1L5,1Z" fill="#877000" /><linearGradient id="F76" x1="0.499998" y1="-0.0178484" x2="0.499998" y2="1.03587"><stop offset="0" stop-color="#FFFDDD" /><stop offset="1" stop-color="#FFF45E" /></linearGradient><path fill-rule="evenodd" d="M6,6L5,6L5,7L6,7M2,6L1,6L1,7L2,7M6,2L5,2L5,3L6,3M2,2L1,2L1,3L2,3M6,4L6,5L5,5L5,6L4,6L4,8L3,8L3,6L2,6L2,5L1,5L1,4L2,4L2,3L3,3L3,1L4,1L4,3L5,3L5,4L6,4Z" fill="url(#F76)" /><path fill-rule="evenodd" d="M3,5L4,5L4,4L3,4L3,5Z" fill="#877000" /></g></svg><svg width="16" height="16" viewBox="0,0,16,16" x="126" y="0"><svg ti:v="1" width="16" height="16" viewBox="0,0,16,16" xmlns="http://www.w3.org/2000/svg" xmlns:ti="urn:schemas-jetbrains-com:tisvg"><g><path fill-rule="evenodd" d="M0,0L16,0L16,16L0,16Z" fill="#FFFFFF" opacity="0" /><linearGradient id="F107" x1="0.499999" y1="4.69501E-06" x2="0.499999" y2="1"><stop offset="0" stop-color="#800080" /><stop offset="1" stop-color="#5B005B" /></linearGradient><path fill-rule="evenodd" d="M2,4.160000000000025L2,10.841000000000008L7.7420000000000044,14L8.2579999999999956,14L14,10.841000000000008L14,4.160000000000025L8.2579999999999956,1L7.7420000000000044,1L2,4.160000000000025Z" fill="url(#F107)" /><linearGradient id="F207" x1="0.0278305" y1="0.5" x2="1.01539" y2="0.5"><stop offset="0" stop-color="#FD59FF" /><stop offset="1" stop-color="#FF9CFF" /></linearGradient><path fill-rule="evenodd" d="M3,5.25L3,10.25L8,13L8,8L3,5.25Z" fill="url(#F207)" /><linearGradient id="F307" x1="0.0278305" y1="0.5" x2="1.01539" y2="0.5"><stop offset="0" stop-color="#FD33FF" /><stop offset="1" stop-color="#FFA3FF" /></linearGradient><path fill-rule="evenodd" d="M13,5.25L8,8L8,13L13,10.25L13,5.25Z" fill="url(#F307)" /><path fill-rule="evenodd" d="M12.544899999999998,4.5L7.9998999999999967,7L3.454899999999995,4.5L2.9998999999999967,4.7509999999999764L2.9998999999999967,5.25L7.9998999999999967,8L12.999899999999997,5.25L12.999899999999997,4.7509999999999764L12.544899999999998,4.5Z" fill="#FFFFFF" /><linearGradient id="F507" x1="0.499999" y1="0.0277466" x2="0.499999" y2="1.01531"><stop offset="0" stop-color="#FD54FF" /><stop offset="1" stop-color="#FFBFFF" /></linearGradient><path fill-rule="evenodd" d="M8,7L12.545000000000002,4.5L8,2L3.4549999999999983,4.5L8,7Z" fill="url(#F507)" /></g></svg><svg ti:v="1" width="16" height="16" viewBox="0,0,16,16" xmlns="http://www.w3.org/2000/svg" xmlns:ti="urn:schemas-jetbrains-com:tisvg"><g><path fill-rule="evenodd" d="M0,0L16,0L16,16L0,16Z" fill="#FFFFFF" opacity="0" /><linearGradient id="F117" x1="0.499996" y1="4.35965E-06" x2="0.499996" y2="1"><stop offset="0" stop-color="#805D00" /><stop offset="1" stop-color="#563D00" /></linearGradient><path fill-rule="evenodd" d="M12.086000000000013,9L9,12.086000000000013L9,12.913999999999987L12.086000000000013,16L12.913999999999987,16L16,12.913999999999987L16,12.086000000000013L12.913999999999987,9L12.086000000000013,9Z" fill="url(#F117)" /><linearGradient id="F217" x1="0.499994" y1="6.10352E-06" x2="0.499994" y2="1.00001"><stop offset="0" stop-color="#FFFF80" /><stop offset="1" stop-color="#FFC300" /></linearGradient><path fill-rule="evenodd" d="M12.5,10L15,12.5L12.5,15L10,12.5L12.5,10Z" fill="url(#F217)" /></g></svg></svg><svg width="16" height="16" viewBox="0,0,16,16" x="144" y="0"><svg ti:v="1" width="16" height="16" viewBox="0,0,16,16" xmlns="http://www.w3.org/2000/svg" xmlns:ti="urn:schemas-jetbrains-com:tisvg"><g><path fill-rule="evenodd" d="M0,0L16,0L16,16L0,16Z" fill="#FFFFFF" opacity="0" /><linearGradient id="F108" x1="0.499999" y1="4.69501E-06" x2="0.499999" y2="1"><stop offset="0" stop-color="#800080" /><stop offset="1" stop-color="#5B005B" /></linearGradient><path fill-rule="evenodd" d="M2,4.160000000000025L2,10.841000000000008L7.7420000000000044,14L8.2579999999999956,14L14,10.841000000000008L14,4.160000000000025L8.2579999999999956,1L7.7420000000000044,1L2,4.160000000000025Z" fill="url(#F108)" /><linearGradient id="F208" x1="0.0278305" y1="0.5" x2="1.01539" y2="0.5"><stop offset="0" stop-color="#FD59FF" /><stop offset="1" stop-color="#FF9CFF" /></linearGradient><path fill-rule="evenodd" d="M3,5.25L3,10.25L8,13L8,8L3,5.25Z" fill="url(#F208)" /><linearGradient id="F308" x1="0.0278305" y1="0.5" x2="1.01539" y2="0.5"><stop offset="0" stop-color="#FD33FF" /><stop offset="1" stop-color="#FFA3FF" /></linearGradient><path fill-rule="evenodd" d="M13,5.25L8,8L8,13L13,10.25L13,5.25Z" fill="url(#F308)" /><path fill-rule="evenodd" d="M12.544899999999998,4.5L7.9998999999999967,7L3.454899999999995,4.5L2.9998999999999967,4.7509999999999764L2.9998999999999967,5.25L7.9998999999999967,8L12.999899999999997,5.25L12.999899999999997,4.7509999999999764L12.544899999999998,4.5Z" fill="#FFFFFF" /><linearGradient id="F508" x1="0.499999" y1="0.0277466" x2="0.499999" y2="1.01531"><stop offset="0" stop-color="#FD54FF" /><stop offset="1" stop-color="#FFBFFF" /></linearGradient><path fill-rule="evenodd" d="M8,7L12.545000000000002,4.5L8,2L3.4549999999999983,4.5L8,7Z" fill="url(#F508)" /></g></svg><svg ti:v="1" width="16" height="16" viewBox="0,0,16,16" xmlns="http://www.w3.org/2000/svg" xmlns:ti="urn:schemas-jetbrains-com:tisvg"><g><path fill-rule="evenodd" d="M0,0L16,0L16,16L0,16Z" fill="#FFFFFF" opacity="0" /><linearGradient id="F118" x1="0.5" y1="0.0162048" x2="0.5" y2="1.00555"><stop offset="0" stop-color="#776004" /><stop offset="1" stop-color="#443400" /></linearGradient><path fill-rule="evenodd" d="M7,16L0,16L0,10L7,10L7,16Z" fill="url(#F118)" /><linearGradient id="F218" x1="0" y1="0.500015" x2="1" y2="0.500015"><stop offset="0" stop-color="#D6B672" /><stop offset="0.31901800632476807" stop-color="#FDD89C" /><stop offset="1" stop-color="#C36D2A" /></linearGradient><path fill-rule="evenodd" d="M6,15L1,15L1,11L6,11L6,15Z" fill="url(#F218)" /><path fill-rule="evenodd" d="M3,14L4,14L4,12L3,12L3,14Z" fill="#000000" /><linearGradient id="F418" x1="0" y1="0.500015" x2="1" y2="0.500015"><stop offset="0" stop-color="#939597" /><stop offset="1" stop-color="#57595B" /></linearGradient><path fill-rule="evenodd" d="M3,6C1.8950000000000102,6,1,6.89500000000001,1,8L1,10L6,10L6,8C6,6.89500000000001,5.10499999999999,6,4,6L3,6Z" fill="url(#F418)" /><path fill-rule="evenodd" d="M4,7L3,7L2,8L2,10L3,10L3,8L4,8L4,10L5,10L5,8L4,7Z" fill="#FFFFFF" /></g></svg></svg><svg width="16" height="16" viewBox="0,0,16,16" x="162" y="0"><svg ti:v="1" width="16" height="16" viewBox="0,0,16,16" xmlns="http://www.w3.org/2000/svg" xmlns:ti="urn:schemas-jetbrains-com:tisvg"><g><path fill-rule="evenodd" d="M0,0L16,0L16,16L0,16Z" fill="#FFFFFF" opacity="0" /><linearGradient id="F109" x1="0.499999" y1="4.69501E-06" x2="0.499999" y2="1"><stop offset="0" stop-color="#800080" /><stop offset="1" stop-color="#5B005B" /></linearGradient><path fill-rule="evenodd" d="M2,4.160000000000025L2,10.841000000000008L7.7420000000000044,14L8.2579999999999956,14L14,10.841000000000008L14,4.160000000000025L8.2579999999999956,1L7.7420000000000044,1L2,4.160000000000025Z" fill="url(#F109)" /><linearGradient id="F209" x1="0.0278305" y1="0.5" x2="1.01539" y2="0.5"><stop offset="0" stop-color="#FD59FF" /><stop offset="1" stop-color="#FF9CFF" /></linearGradient><path fill-rule="evenodd" d="M3,5.25L3,10.25L8,13L8,8L3,5.25Z" fill="url(#F209)" /><linearGradient id="F309" x1="0.0278305" y1="0.5" x2="1.01539" y2="0.5"><stop offset="0" stop-color="#FD33FF" /><stop offset="1" stop-color="#FFA3FF" /></linearGradient><path fill-rule="evenodd" d="M13,5.25L8,8L8,13L13,10.25L13,5.25Z" fill="url(#F309)" /><path fill-rule="evenodd" d="M12.544899999999998,4.5L7.9998999999999967,7L3.454899999999995,4.5L2.9998999999999967,4.7509999999999764L2.9998999999999967,5.25L7.9998999999999967,8L12.999899999999997,5.25L12.999899999999997,4.7509999999999764L12.544899999999998,4.5Z" fill="#FFFFFF" /><linearGradient id="F509" x1="0.499999" y1="0.0277466" x2="0.499999" y2="1.01531"><stop offset="0" stop-color="#FD54FF" /><stop offset="1" stop-color="#FFBFFF" /></linearGradient><path fill-rule="evenodd" d="M8,7L12.545000000000002,4.5L8,2L3.4549999999999983,4.5L8,7Z" fill="url(#F509)" /></g></svg><svg ti:v="1" width="16" height="16" viewBox="0,0,16,16" xmlns="http://www.w3.org/2000/svg" xmlns:ti="urn:schemas-jetbrains-com:tisvg"><g><path fill-rule="evenodd" d="M0,0L16,0L16,16L0,16Z" fill="#FFFFFF" opacity="0" /><linearGradient id="F119" x1="0.5" y1="0.0162048" x2="0.5" y2="1.00555"><stop offset="0" stop-color="#776004" /><stop offset="1" stop-color="#443400" /></linearGradient><path fill-rule="evenodd" d="M7,16L0,16L0,10L7,10L7,16Z" fill="url(#F119)" /><linearGradient id="F219" x1="0" y1="0.500015" x2="1" y2="0.500015"><stop offset="0" stop-color="#D6B672" /><stop offset="0.31901800632476807" stop-color="#FDD89C" /><stop offset="1" stop-color="#C36D2A" /></linearGradient><path fill-rule="evenodd" d="M6,15L1,15L1,11L6,11L6,15Z" fill="url(#F219)" /><path fill-rule="evenodd" d="M3,14L4,14L4,12L3,12L3,14Z" fill="#000000" /><linearGradient id="F419" x1="0" y1="0.500015" x2="1" y2="0.500015"><stop offset="0" stop-color="#939597" /><stop offset="1" stop-color="#57595B" /></linearGradient><path fill-rule="evenodd" d="M3,6C1.8950000000000102,6,1,6.89500000000001,1,8L1,10L6,10L6,8C6,6.89500000000001,5.10499999999999,6,4,6L3,6Z" fill="url(#F419)" /><path fill-rule="evenodd" d="M4,7L3,7L2,8L2,10L3,10L3,8L4,8L4,10L5,10L5,8L4,7Z" fill="#FFFFFF" /></g></svg></svg></svg>